<mxfile host="Electron" modified="2024-03-14T13:18:57.709Z" agent="Mozilla/5.0 (Windows NT 10.0; Win64; x64) AppleWebKit/537.36 (KHTML, like Gecko) draw.io/24.0.4 Chrome/120.0.6099.109 Electron/28.1.0 Safari/537.36" etag="DUtgIUYZYGn8UP8BWo2E" version="24.0.4" type="device">
  <diagram name="Page-1" id="nTf35-HQ4OqPGUdLjYD-">
    <mxGraphModel dx="1050" dy="629" grid="1" gridSize="10" guides="1" tooltips="1" connect="1" arrows="1" fold="1" page="1" pageScale="1" pageWidth="850" pageHeight="1100" math="0" shadow="0">
      <root>
        <mxCell id="0" />
        <mxCell id="1" parent="0" />
        <mxCell id="Xj9T8-HhXF-XUiV4OEcW-1" value="" style="rounded=0;whiteSpace=wrap;html=1;" vertex="1" parent="1">
          <mxGeometry x="240" y="160" width="300" height="220" as="geometry" />
        </mxCell>
        <mxCell id="Xj9T8-HhXF-XUiV4OEcW-2" value="Log in" style="rounded=0;whiteSpace=wrap;html=1;align=left;spacingLeft=10;" vertex="1" parent="1">
          <mxGeometry x="240" y="160" width="300" height="30" as="geometry" />
        </mxCell>
        <mxCell id="Xj9T8-HhXF-XUiV4OEcW-3" value="X" style="rounded=0;whiteSpace=wrap;html=1;" vertex="1" parent="1">
          <mxGeometry x="510" y="160" width="30" height="30" as="geometry" />
        </mxCell>
        <mxCell id="Xj9T8-HhXF-XUiV4OEcW-4" value="-" style="rounded=0;whiteSpace=wrap;html=1;" vertex="1" parent="1">
          <mxGeometry x="450" y="160" width="30" height="30" as="geometry" />
        </mxCell>
        <mxCell id="Xj9T8-HhXF-XUiV4OEcW-5" value="Log in" style="rounded=0;whiteSpace=wrap;html=1;" vertex="1" parent="1">
          <mxGeometry x="260" y="330" width="120" height="30" as="geometry" />
        </mxCell>
        <mxCell id="Xj9T8-HhXF-XUiV4OEcW-6" value="Register" style="rounded=0;whiteSpace=wrap;html=1;" vertex="1" parent="1">
          <mxGeometry x="405" y="330" width="120" height="30" as="geometry" />
        </mxCell>
        <mxCell id="Xj9T8-HhXF-XUiV4OEcW-8" value="Username" style="rounded=0;whiteSpace=wrap;html=1;align=left;fontColor=#808080;" vertex="1" parent="1">
          <mxGeometry x="280" y="220" width="220" height="30" as="geometry" />
        </mxCell>
        <mxCell id="Xj9T8-HhXF-XUiV4OEcW-9" value="Password" style="rounded=0;whiteSpace=wrap;html=1;align=left;fontColor=#808080;" vertex="1" parent="1">
          <mxGeometry x="280" y="270" width="220" height="30" as="geometry" />
        </mxCell>
        <mxCell id="Xj9T8-HhXF-XUiV4OEcW-10" style="edgeStyle=orthogonalEdgeStyle;rounded=0;orthogonalLoop=1;jettySize=auto;html=1;exitX=0.5;exitY=1;exitDx=0;exitDy=0;" edge="1" parent="1" source="Xj9T8-HhXF-XUiV4OEcW-9" target="Xj9T8-HhXF-XUiV4OEcW-9">
          <mxGeometry relative="1" as="geometry" />
        </mxCell>
      </root>
    </mxGraphModel>
  </diagram>
</mxfile>
